<mxfile host="65bd71144e">
    <diagram id="SH71Kn9LiDae7Ocfv0xz" name="Page-1">
        <mxGraphModel dx="878" dy="525" grid="1" gridSize="10" guides="1" tooltips="1" connect="1" arrows="1" fold="1" page="1" pageScale="1" pageWidth="850" pageHeight="1100" math="0" shadow="0">
            <root>
                <mxCell id="0"/>
                <mxCell id="1" parent="0"/>
                <mxCell id="9" value="Game" style="swimlane;fontStyle=0;childLayout=stackLayout;horizontal=1;startSize=30;horizontalStack=0;resizeParent=1;resizeParentMax=0;resizeLast=0;collapsible=1;marginBottom=0;whiteSpace=wrap;html=1;labelBackgroundColor=#1C1D1D;labelBorderColor=none;" parent="1" vertex="1">
                    <mxGeometry x="210" y="290" width="180" height="290" as="geometry">
                        <mxRectangle x="40" y="130" width="70" height="30" as="alternateBounds"/>
                    </mxGeometry>
                </mxCell>
                <mxCell id="10" value="title: String" style="text;strokeColor=none;fillColor=none;align=left;verticalAlign=middle;spacingLeft=4;spacingRight=4;overflow=hidden;points=[[0,0.5],[1,0.5]];portConstraint=eastwest;rotatable=0;whiteSpace=wrap;html=1;labelBackgroundColor=#1C1D1D;labelBorderColor=none;" parent="9" vertex="1">
                    <mxGeometry y="30" width="180" height="30" as="geometry"/>
                </mxCell>
                <mxCell id="11" value="publisher: Publisher[1]" style="text;strokeColor=none;fillColor=none;align=left;verticalAlign=middle;spacingLeft=4;spacingRight=4;overflow=hidden;points=[[0,0.5],[1,0.5]];portConstraint=eastwest;rotatable=0;whiteSpace=wrap;html=1;labelBackgroundColor=#1C1D1D;labelBorderColor=none;" parent="9" vertex="1">
                    <mxGeometry y="60" width="180" height="30" as="geometry"/>
                </mxCell>
                <object label="author: Author[1]" id="12">
                    <mxCell style="text;align=left;verticalAlign=middle;spacingLeft=4;spacingRight=4;overflow=hidden;points=[[0,0.5],[1,0.5]];portConstraint=eastwest;rotatable=0;whiteSpace=wrap;html=1;labelBackgroundColor=#1C1D1D;labelBorderColor=none;" parent="9" vertex="1">
                        <mxGeometry y="90" width="180" height="40" as="geometry"/>
                    </mxCell>
                </object>
                <mxCell id="44" value="price: Number" style="text;align=left;verticalAlign=middle;spacingLeft=4;spacingRight=4;overflow=hidden;points=[[0,0.5],[1,0.5]];portConstraint=eastwest;rotatable=0;whiteSpace=wrap;html=1;labelBackgroundColor=#1C1D1D;labelBorderColor=none;" parent="9" vertex="1">
                    <mxGeometry y="130" width="180" height="40" as="geometry"/>
                </mxCell>
                <mxCell id="45" value="description: String" style="text;align=left;verticalAlign=middle;spacingLeft=4;spacingRight=4;overflow=hidden;points=[[0,0.5],[1,0.5]];portConstraint=eastwest;rotatable=0;whiteSpace=wrap;html=1;labelBackgroundColor=#1C1D1D;labelBorderColor=none;" parent="9" vertex="1">
                    <mxGeometry y="170" width="180" height="40" as="geometry"/>
                </mxCell>
                <mxCell id="19" value="genre: Genre[0]" style="text;align=left;verticalAlign=middle;spacingLeft=4;spacingRight=4;overflow=hidden;points=[[0,0.5],[1,0.5]];portConstraint=eastwest;rotatable=0;whiteSpace=wrap;html=1;labelBackgroundColor=#1C1D1D;labelBorderColor=none;" parent="9" vertex="1">
                    <mxGeometry y="210" width="180" height="40" as="geometry"/>
                </mxCell>
                <mxCell id="20" value="url: String" style="text;align=left;verticalAlign=middle;spacingLeft=4;spacingRight=4;overflow=hidden;points=[[0,0.5],[1,0.5]];portConstraint=eastwest;rotatable=0;whiteSpace=wrap;html=1;labelBackgroundColor=#1C1D1D;labelBorderColor=none;" parent="9" vertex="1">
                    <mxGeometry y="250" width="180" height="40" as="geometry"/>
                </mxCell>
                <mxCell id="22" value="author" style="swimlane;fontStyle=0;childLayout=stackLayout;horizontal=1;startSize=30;horizontalStack=0;resizeParent=1;resizeParentMax=0;resizeLast=0;collapsible=1;marginBottom=0;whiteSpace=wrap;html=1;labelBackgroundColor=#1C1D1D;labelBorderColor=none;" parent="1" vertex="1">
                    <mxGeometry x="520" y="330" width="140" height="90" as="geometry"/>
                </mxCell>
                <mxCell id="23" value="title: String" style="text;strokeColor=none;fillColor=none;align=left;verticalAlign=middle;spacingLeft=4;spacingRight=4;overflow=hidden;points=[[0,0.5],[1,0.5]];portConstraint=eastwest;rotatable=0;whiteSpace=wrap;html=1;labelBackgroundColor=#1C1D1D;labelBorderColor=none;" parent="22" vertex="1">
                    <mxGeometry y="30" width="140" height="30" as="geometry"/>
                </mxCell>
                <mxCell id="24" value="url: string" style="text;strokeColor=none;fillColor=none;align=left;verticalAlign=middle;spacingLeft=4;spacingRight=4;overflow=hidden;points=[[0,0.5],[1,0.5]];portConstraint=eastwest;rotatable=0;whiteSpace=wrap;html=1;labelBackgroundColor=#1C1D1D;labelBorderColor=none;" parent="22" vertex="1">
                    <mxGeometry y="60" width="140" height="30" as="geometry"/>
                </mxCell>
                <mxCell id="28" value="" style="endArrow=none;html=1;entryX=-0.007;entryY=0;entryDx=0;entryDy=0;entryPerimeter=0;" parent="1" target="24" edge="1">
                    <mxGeometry width="50" height="50" relative="1" as="geometry">
                        <mxPoint x="390" y="390" as="sourcePoint"/>
                        <mxPoint x="440" y="340" as="targetPoint"/>
                    </mxGeometry>
                </mxCell>
                <mxCell id="29" value="1*&lt;br&gt;" style="text;strokeColor=none;align=center;fillColor=none;html=1;verticalAlign=middle;whiteSpace=wrap;rounded=0;labelBackgroundColor=#1C1D1D;labelBorderColor=none;" parent="1" vertex="1">
                    <mxGeometry x="390" y="350" width="60" height="30" as="geometry"/>
                </mxCell>
                <mxCell id="30" value="1" style="text;strokeColor=none;align=center;fillColor=none;html=1;verticalAlign=middle;whiteSpace=wrap;rounded=0;labelBackgroundColor=#1C1D1D;labelBorderColor=none;" parent="1" vertex="1">
                    <mxGeometry x="470" y="350" width="60" height="30" as="geometry"/>
                </mxCell>
                <mxCell id="31" value="Publisher" style="swimlane;fontStyle=0;childLayout=stackLayout;horizontal=1;startSize=30;horizontalStack=0;resizeParent=1;resizeParentMax=0;resizeLast=0;collapsible=1;marginBottom=0;whiteSpace=wrap;html=1;labelBackgroundColor=#1C1D1D;labelBorderColor=none;" parent="1" vertex="1">
                    <mxGeometry x="520" y="460" width="140" height="90" as="geometry"/>
                </mxCell>
                <mxCell id="32" value="title: String" style="text;strokeColor=none;fillColor=none;align=left;verticalAlign=middle;spacingLeft=4;spacingRight=4;overflow=hidden;points=[[0,0.5],[1,0.5]];portConstraint=eastwest;rotatable=0;whiteSpace=wrap;html=1;labelBackgroundColor=#1C1D1D;labelBorderColor=none;" parent="31" vertex="1">
                    <mxGeometry y="30" width="140" height="30" as="geometry"/>
                </mxCell>
                <mxCell id="33" value="url: String" style="text;strokeColor=none;fillColor=none;align=left;verticalAlign=middle;spacingLeft=4;spacingRight=4;overflow=hidden;points=[[0,0.5],[1,0.5]];portConstraint=eastwest;rotatable=0;whiteSpace=wrap;html=1;labelBackgroundColor=#1C1D1D;labelBorderColor=none;" parent="31" vertex="1">
                    <mxGeometry y="60" width="140" height="30" as="geometry"/>
                </mxCell>
                <mxCell id="35" value="" style="endArrow=none;html=1;entryX=0;entryY=0.5;entryDx=0;entryDy=0;exitX=1;exitY=0.1;exitDx=0;exitDy=0;exitPerimeter=0;" parent="1" target="32" edge="1" source="19">
                    <mxGeometry width="50" height="50" relative="1" as="geometry">
                        <mxPoint x="390" y="380" as="sourcePoint"/>
                        <mxPoint x="440" y="330" as="targetPoint"/>
                        <Array as="points"/>
                    </mxGeometry>
                </mxCell>
                <mxCell id="36" value="1*&lt;br&gt;" style="text;strokeColor=none;align=center;fillColor=none;html=1;verticalAlign=middle;whiteSpace=wrap;rounded=0;labelBackgroundColor=#1C1D1D;labelBorderColor=none;" parent="1" vertex="1">
                    <mxGeometry x="380" y="470" width="60" height="30" as="geometry"/>
                </mxCell>
                <mxCell id="37" value="1" style="text;strokeColor=none;align=center;fillColor=none;html=1;verticalAlign=middle;whiteSpace=wrap;rounded=0;labelBackgroundColor=#1C1D1D;labelBorderColor=none;" parent="1" vertex="1">
                    <mxGeometry x="460" y="470" width="60" height="30" as="geometry"/>
                </mxCell>
                <mxCell id="38" value="Genre" style="swimlane;fontStyle=0;childLayout=stackLayout;horizontal=1;startSize=30;horizontalStack=0;resizeParent=1;resizeParentMax=0;resizeLast=0;collapsible=1;marginBottom=0;whiteSpace=wrap;html=1;labelBackgroundColor=#1C1D1D;labelBorderColor=none;" parent="1" vertex="1">
                    <mxGeometry x="230" y="680" width="140" height="90" as="geometry"/>
                </mxCell>
                <mxCell id="39" value="title: String" style="text;strokeColor=none;fillColor=none;align=left;verticalAlign=middle;spacingLeft=4;spacingRight=4;overflow=hidden;points=[[0,0.5],[1,0.5]];portConstraint=eastwest;rotatable=0;whiteSpace=wrap;html=1;labelBackgroundColor=#1C1D1D;labelBorderColor=none;" parent="38" vertex="1">
                    <mxGeometry y="30" width="140" height="30" as="geometry"/>
                </mxCell>
                <mxCell id="40" value="url: String" style="text;strokeColor=none;fillColor=none;align=left;verticalAlign=middle;spacingLeft=4;spacingRight=4;overflow=hidden;points=[[0,0.5],[1,0.5]];portConstraint=eastwest;rotatable=0;whiteSpace=wrap;html=1;labelBackgroundColor=#1C1D1D;labelBorderColor=none;" parent="38" vertex="1">
                    <mxGeometry y="60" width="140" height="30" as="geometry"/>
                </mxCell>
                <mxCell id="43" value="" style="endArrow=none;html=1;exitX=0.5;exitY=0;exitDx=0;exitDy=0;entryX=0.5;entryY=1.025;entryDx=0;entryDy=0;entryPerimeter=0;" parent="1" source="38" target="20" edge="1">
                    <mxGeometry width="50" height="50" relative="1" as="geometry">
                        <mxPoint x="250" y="550" as="sourcePoint"/>
                        <mxPoint x="300" y="590" as="targetPoint"/>
                    </mxGeometry>
                </mxCell>
                <mxCell id="46" value="0*" style="text;strokeColor=none;align=center;fillColor=none;html=1;verticalAlign=middle;whiteSpace=wrap;rounded=0;" parent="1" vertex="1">
                    <mxGeometry x="230" y="650" width="60" height="30" as="geometry"/>
                </mxCell>
                <mxCell id="47" value="0*" style="text;strokeColor=none;align=center;fillColor=none;html=1;verticalAlign=middle;whiteSpace=wrap;rounded=0;" parent="1" vertex="1">
                    <mxGeometry x="310" y="580" width="60" height="30" as="geometry"/>
                </mxCell>
            </root>
        </mxGraphModel>
    </diagram>
</mxfile>